<svg id="_x33_0" enable-background="new 0 0 64 64" height="512" viewBox="0 0 64 64" width="512" xmlns="http://www.w3.org/2000/svg"><g><g><g><path d="m24 52.75v9.25h-6v-.49c0-1.96.61-3.81 1.67-5.35 1.05-1.51 2.54-2.72 4.33-3.41z" fill="#fc6e51"/></g><g><path d="m46 61.51v.49h-6v-9.25c3.61 1.4 6 4.87 6 8.76z" fill="#fc6e51"/></g><g><path d="m36.56 50.56c.95.95 2.09 1.68 3.35 2.15.03.01.06.02.09.04v9.25h-4v-6h-8v6h-4v-9.25c.03-.02.06-.03.09-.04 1.26-.47 2.4-1.2 3.35-2.15l.56-.56h4 4z" fill="#ff826e"/></g><g><path d="m28 56h8v6h-8z" fill="#69d6f4"/></g><g><path d="m36 48.5v1.5h-4v-4.7l.78-.08c1.38-.14 2.6-.97 3.22-2.22z" fill="#e6e9ed"/></g><g><path d="m32 45.3v4.7h-4v-4.3z" fill="#e6e9ed"/></g><g><path d="m36 37.66v5.34c-.62 1.25-1.84 2.08-3.22 2.22l-.78.08-4 .4-2.86.29c-.09.01-.19.01-.28.01-.79 0-1.5-.32-2.02-.84s-.84-1.23-.84-2.02v-1.14-3l-2-1 1.5-6 1.31-5.24c.11-.45.51-.76.97-.76h10.22c-3.31 0-6 2.69-6 6s2.69 6 6 6c.7 0 1.37-.12 2-.34z" fill="#e6e9ed"/></g><g><path d="m39.6 41.3c-1.14.85-2.04 1.94-2.65 3.18-.62 1.23-.95 2.6-.95 4.02v-5.5-5.34c2.33-.82 4-3.05 4-5.66 0-3.31-2.69-6-6-6h9c.55 0 1 .45 1 1v5.5c0 3.46-1.63 6.72-4.4 8.8z" fill="#cf9e76"/></g><g><path d="m40 32c0 2.61-1.67 4.84-4 5.66-.63.22-1.3.34-2 .34-3.31 0-6-2.69-6-6s2.69-6 6-6 6 2.69 6 6z" fill="#fcd770"/></g><g><circle cx="34" cy="32" fill="#ccd1d9" r="2"/></g></g><g><path d="m34 35c1.654 0 3-1.346 3-3s-1.346-3-3-3-3 1.346-3 3 1.346 3 3 3zm0-4c.551 0 1 .449 1 1s-.449 1-1 1-1-.449-1-1 .449-1 1-1z"/><path d="m40.257 51.778c-1.131-.425-2.137-1.072-2.988-1.924l-.269-.268v-1.086c0-2.504 1.196-4.896 3.2-6.4 3.005-2.254 4.8-5.843 4.8-9.6v-5.5c0-1.103-.897-2-2-2h-19.219c-.919 0-1.717.623-1.94 1.515l-3.005 12.021 2.164 1.082v3.524c0 2.128 1.73 3.858 3.857 3.858.13 0 .259-.007.384-.02l1.759-.175v2.781l-.269.269c-.851.852-1.856 1.499-2.987 1.924-4.034 1.511-6.744 5.422-6.744 9.731v1.49h30v-1.49c0-4.309-2.71-8.22-6.743-9.732zm-5.257-2.778h-2v-2.804c.721-.09 1.401-.322 2-.686zm-1-22c2.757 0 5 2.243 5 5s-2.243 5-5 5-5-2.243-5-5 2.243-5 5-5zm9 0v5.5c0 3.131-1.495 6.121-4 8-.766.575-1.437 1.255-2 2.01v-4.195c2.361-1.126 4-3.53 4-6.315 0-1.958-.81-3.728-2.11-5zm-17.961 17.99c-1.081.116-2.039-.762-2.039-1.847v-.143h2c2.206 0 4-1.794 4-4h-2c0 1.103-.897 2-2 2h-2v-2.618l-1.835-.918 1.116-4.464h2.719v-2h-2.219l1-4h5.33c-1.3 1.272-2.11 3.042-2.11 5 0 3.859 3.14 7 7 7 .34 0 .672-.033 1-.08v3.79c-.492.848-1.339 1.418-2.325 1.517zm5.961 1.415v2.595h-2v-2.395zm-2.854 4.864.268-.269h7.172l.268.269c.912.912 1.972 1.621 3.146 2.141v7.59h-2v-6h-10v6h-2v-7.591c1.173-.519 2.234-1.229 3.146-2.14zm6.854 9.731h-6v-4h6zm-12-6.617v6.617h-3.984c.168-2.732 1.69-5.195 3.984-6.617zm18 6.617v-6.617c2.294 1.421 3.816 3.885 3.984 6.617z"/><path d="m29 1h-6v6h6zm-2 4h-2v-2h2z"/><path d="m19 1h2v6h-2z"/><path d="m41 1h-6v6h6zm-2 4h-2v-2h2z"/><path d="m31 1h2v6h-2z"/><path d="m23 9h-6v6h6zm-2 4h-2v-2h2z"/><path d="m25 9h2v6h-2z"/><path d="m29 15h6v-6h-6zm2-4h2v2h-2z"/><path d="m41 15h6v-6h-6zm2-4h2v2h-2z"/><path d="m37 9h2v6h-2z"/><path d="m43 1h2v6h-2z"/><path d="m23 23h6v-6h-6zm2-4h2v2h-2z"/><path d="m19 17h2v6h-2z"/><path d="m35 23h6v-6h-6zm2-4h2v2h-2z"/><path d="m31 17h2v6h-2z"/><path d="m43 17h2v6h-2z"/><path d="m11 9.586-8.293-8.293-1.414 1.414 8.293 8.293h-2.586v2h6v-6h-2z"/><path d="m57 11h-2.586l8.293-8.293-1.414-1.414-8.293 8.293v-2.586h-2v6h6z"/><path d="m7 43h2.586l-8.293 8.293 1.414 1.414 8.293-8.293v2.586h2v-6h-6z"/><path d="m57 43v-2h-6v6h2v-2.586l8.293 8.293 1.414-1.414-8.293-8.293z"/></g></g></svg>