<?xml version="1.0" encoding="UTF-8"?>
<svg width="41px" height="36px" viewBox="0 0 41 36" version="1.1" xmlns="http://www.w3.org/2000/svg" xmlns:xlink="http://www.w3.org/1999/xlink">
    <title>Codebook Icon</title>
    <g id="Symbols" stroke="none" stroke-width="1" fill="none" fill-rule="evenodd" stroke-linecap="round" stroke-linejoin="round">
        <g id="Tabbar" transform="translate(-1146.000000, -23.000000)" stroke="#FFFFFF" stroke-width="2.64285714">
            <g id="Codebook-Icon">
                <path d="M1166.49999,32.9285714 C1167.82143,27.7122321 1172.8123,25.0487277 1183.67857,24.9999906 C1184.02944,24.9986768 1184.36632,25.1374734 1184.61442,25.3855767 C1184.86253,25.6336801 1185.00132,25.9705599 1185.00001,26.3214286 L1185.00001,50.1071429 C1185.00001,50.8369477 1184.40838,51.4285714 1183.67857,51.4285714 C1173.10714,51.4285714 1169.0231,53.5602009 1166.49999,56.7142857 C1163.99176,53.5758929 1159.89286,51.4285714 1149.32143,51.4285714 C1148.50545,51.4285714 1147.99999,50.7637277 1147.99999,49.9477455 L1147.99999,26.3214286 C1147.99868,25.9705599 1148.13747,25.6336801 1148.38558,25.3855767 C1148.63368,25.1374734 1148.97056,24.9986768 1149.32143,24.9999906 C1160.1877,25.0487277 1165.17857,27.7122321 1166.49999,32.9285714 Z M1166.50871,32.9285714 L1166.50871,56.7142857"></path>
            </g>
        </g>
    </g>
</svg>