<?xml version="1.0" encoding="UTF-8"?>
<svg width="25px" height="25px" viewBox="0 0 25 25" version="1.1" xmlns="http://www.w3.org/2000/svg" xmlns:xlink="http://www.w3.org/1999/xlink">
    <title>Logout Icon</title>
    <g id="Templates" stroke="none" stroke-width="1" fill="none" fill-rule="evenodd">
        <g id="Templates-profile-popup-desktop" transform="translate(-1135.000000, -300.000000)" fill="currentColor" fill-rule="nonzero">
            <g id="Profile-Popup" transform="translate(1106.000000, 93.000000)">
                <g id="Logout-Item" transform="translate(29.000000, 207.000000)">
                    <path d="M13.2400273,13.7491048 L10.3644784,16.6113666 C10.1277924,16.8460553 9.99465988,17.1655235 9.99465988,17.4987927 C9.99465988,17.8320619 10.1277924,18.1515301 10.3644784,18.3862189 C10.5992314,18.62284 10.9187873,18.755936 11.2521478,18.755936 C11.5855084,18.755936 11.9050642,18.62284 12.1398173,18.3862189 L17.1407718,13.386635 C17.2545943,13.2677652 17.3438176,13.1275957 17.4033219,12.9741693 C17.5283683,12.6698679 17.5283683,12.3285497 17.4033219,12.0242483 C17.3438176,11.870822 17.2545943,11.7306524 17.1407718,11.6117827 L12.1398173,6.61219877 C11.8226835,6.29515193 11.360451,6.17133104 10.9272382,6.28737823 C10.4940255,6.40342542 10.1556478,6.74171036 10.0395688,7.17480439 C9.92348977,7.60789841 10.0473446,8.07000424 10.3644784,8.38705106 L13.2400273,11.2493128 L1.25023865,11.2493128 C0.559750908,11.2493128 0,11.8089103 0,12.4992088 C0,13.1895073 0.559750908,13.7491048 1.25023865,13.7491048 L13.2400273,13.7491048 Z M12.5023865,0.000123796762 C7.73556719,-0.0210266845 3.37144685,2.66944324 1.25023865,6.93717173 C0.939519164,7.55844036 1.19140707,8.31389697 1.81284604,8.62453129 C2.434285,8.93516561 3.18994873,8.68334674 3.50066821,8.0620781 C5.68815336,3.64576695 10.7680517,1.4813214 15.4696475,2.96232957 C20.1712433,4.44333775 23.0924383,9.12813705 22.3524079,14.0003981 C21.6123774,18.8726592 17.4318114,22.4793884 12.5023865,22.4983766 C8.69821644,22.5148462 5.22007913,20.3537472 3.55067775,16.9363395 C3.23995826,16.3150709 2.48429455,16.0632521 1.8628556,16.3738864 C1.24141665,16.6845207 0.989528735,17.4399773 1.30024819,18.0612459 C4.04366469,23.5806599 10.4020481,26.2769337 16.2782342,24.412664 C22.1544203,22.5483943 25.7941437,16.6801367 24.8520686,10.589232 C23.9099935,4.49832732 18.6673651,0.00314263564 12.5023865,0.000123796762 L12.5023865,0.000123796762 Z" id="Logout-Icon"></path>
                </g>
            </g>
        </g>
    </g>
</svg>
