<?xml version="1.0" encoding="UTF-8"?>
<svg width="30px" height="22px" viewBox="0 0 30 22" version="1.1" xmlns="http://www.w3.org/2000/svg" xmlns:xlink="http://www.w3.org/1999/xlink">
    <title>My Submissions Icon</title>
    <g id="Templates" stroke="none" stroke-width="1" fill="none" fill-rule="evenodd">
        <g id="Templates-profile-popup-desktop" transform="translate(-1132.000000, -187.000000)" fill="currentColor" fill-rule="nonzero">
            <g id="Profile-Popup" transform="translate(1106.000000, 93.000000)">
                <g id="My-Submissions-Item" transform="translate(26.000000, 93.000000)">
                    <path d="M18.8921603,1.40805931 C19.2105891,1.74852359 19.3169689,2.23366194 19.169835,2.67437751 L13.292085,22.0898975 C13.1297191,22.6295707 12.6291001,22.9996081 12.0608189,23 C11.6548189,23 11.2727128,22.8098009 11.0301172,22.4871907 C10.7875215,22.1645806 10.7129404,21.7473768 10.8289404,21.3618155 L16.7066904,1.94629551 C16.8272363,1.4977208 17.1844274,1.14960957 17.6390381,1.03764834 C18.0936487,0.925687115 18.5737315,1.06759502 18.8921603,1.40805931 Z M10.090242,4.38385338 C10.5578964,4.91346389 10.5037576,5.7184824 9.96931951,6.18191254 L3.23745898,12.0180965 L9.96870724,17.8542805 C10.3721253,18.2037821 10.5145152,18.7645732 10.3260523,19.2616559 C10.1375895,19.7587385 9.65779326,20.0878778 9.12194389,20.0876726 C8.81056075,20.0879755 8.50973963,19.9758091 8.2757928,19.7721698 L0.438792822,12.9767378 C0.159937034,12.734798 0,12.3853797 0,12.0180965 C0,11.6508133 0.159937034,11.301395 0.438792822,11.0594552 L8.2757928,4.26402321 C8.81023092,3.80059308 9.62258747,3.85424287 10.090242,4.38385338 Z M21.7242072,4.26402321 L29.5612072,11.0594552 C29.840063,11.301395 30,11.6508133 30,12.0180965 C30,12.3853797 29.840063,12.734798 29.5612072,12.9767378 L21.7242072,19.7721698 C21.490161,19.9760446 21.1890582,20.0882349 20.8774438,20.0876741 C20.3414824,20.0881309 19.8614521,19.7590824 19.6728304,19.2619401 C19.4842086,18.7647979 19.6265655,18.2038551 20.0300682,17.8542805 L26.7619287,12.0180965 L20.0306805,6.18191254 C19.4962424,5.71848239 19.4421036,4.9134639 19.9097581,4.38385339 C20.3774125,3.85424289 21.1897691,3.80059309 21.7242072,4.26402321 Z" id="My-Submissions-Icon"></path>
                </g>
            </g>
        </g>
    </g>
</svg>
