<?xml version="1.0" encoding="UTF-8"?>
<svg width="33px" height="38px" viewBox="0 0 33 38" version="1.1" xmlns="http://www.w3.org/2000/svg" xmlns:xlink="http://www.w3.org/1999/xlink">
    <title>Notifications Icon</title>
    <g id="Symbols" stroke="none" stroke-width="1" fill="none" fill-rule="evenodd">
        <g id="Tabbar" transform="translate(-1243.000000, -21.000000)" fill="#FFFFFF" fill-rule="nonzero">
            <g id="Notification-Button" transform="translate(1243.743379, 20.000000)">
                <path d="M3.11949749,32.0018832 C0.524274391,32.0018832 -0.937702113,29.1383652 0.674097919,27.1660309 L0.674097919,27.1660309 L1.59771,26.0409204 L1.87401729,25.6910046 C3.25576366,23.8818996 3.84468556,22.1605547 3.96601395,18.5175089 L3.96601395,18.5175089 L3.98414141,17.7626817 C3.98816995,17.5021348 3.99021666,17.2324516 3.9903779,16.9530367 C3.9903779,10.8588634 6.53629065,7.52991825 10.8939604,5.7354306 L10.8939604,5.7354306 L10.9341837,5.70960501 C10.9464215,5.70200969 10.9543983,5.70033015 10.948841,5.71927411 C11.6198527,3.41071563 13.5182145,1.68173258 15.8399542,1.68173258 C18.1598832,1.68173258 20.0562159,3.40678368 20.7331213,5.71059246 L20.733,5.70873258 C20.7386391,5.69997213 20.7442537,5.70334232 20.7508047,5.70798044 L20.7719689,5.72379544 L20.7909632,5.73579897 C25.1423827,7.52725292 27.69365,10.8642633 27.69365,16.9530367 C27.69365,17.2324886 27.6955419,17.5022059 27.6994218,17.7627841 L27.6994218,17.7627841 L27.7171216,18.5176969 L27.7473258,19.2213483 C27.9244605,22.5042059 28.5599719,24.1159957 29.9467724,25.8723178 L29.9467724,25.8723178 L31.1086577,27.2988365 C32.5461214,29.2588071 31.099419,32.0018832 28.56865,32.0018832 L28.56865,32.0018832 L22.4312913,32.0018832 C22.4312913,35.6421782 19.4802491,38.5932203 15.8399542,38.5932203 C12.2771123,38.5932203 9.37450536,35.7664185 9.25260304,32.2332846 L9.24861707,32.0018832 Z M11.8851519,32.0018832 C11.8851519,34.1860602 13.6557772,35.9566855 15.8399542,35.9566855 C17.9558756,35.9566855 19.6836885,34.2949952 19.7896105,32.2053968 L19.7947564,32.0018832 L11.8851519,32.0018832 Z M15.8399542,4.31826742 C14.8049957,4.31826742 13.8484998,5.18942125 13.4796378,6.45844374 C13.2544471,7.22576009 12.6310087,7.87215801 11.896888,8.17376015 C8.47400858,9.58330169 6.62691274,11.9984986 6.62691252,16.9537974 L6.62691252,16.9537974 L6.62489787,17.401247 C6.5808075,22.5429331 5.81130802,24.9621833 3.80237014,27.5062345 L3.80237014,27.5062345 L3.620698,27.7320717 L2.71876303,28.8308722 L2.67894651,28.8897193 C2.56950352,29.0990123 2.73732942,29.3653484 3.11949749,29.3653484 L3.11949749,29.3653484 L28.56865,29.3653484 C28.9744543,29.3653484 29.1365945,29.0454817 28.9641168,28.8342045 L28.9641168,28.8342045 L27.9352346,27.5785945 L27.7083701,27.2883677 C25.7699502,24.7490162 25.0571152,22.2529339 25.0571152,16.9530367 L25.0571152,16.9530367 L25.0541132,16.6118171 C24.9701069,11.8915944 23.1251699,9.54800756 19.7881459,8.17417392 C19.0555081,7.87318052 18.4314802,7.22219392 18.2045078,6.45719641 C17.8318135,5.18876164 16.8748872,4.31826742 15.8399542,4.31826742 Z" id="Notifications-Icon"></path>
            </g>
        </g>
    </g>
</svg>