<?xml version="1.0" encoding="UTF-8"?>
<svg width="25px" height="25px" viewBox="0 0 25 25" version="1.1" xmlns="http://www.w3.org/2000/svg" xmlns:xlink="http://www.w3.org/1999/xlink">
    <title>Seach Icon</title>
    <g id="Symbols" stroke="none" stroke-width="1" fill="none" fill-rule="evenodd">
        <g id="Tabbar" transform="translate(-1044.000000, -27.000000)" fill="#FFFFFF" fill-rule="nonzero">
            <g id="Search-Input" transform="translate(927.000000, 17.000000)">
                <path d="M127.515625,29.1015625 C122.601563,29.1015625 118.617969,25.1875 118.617969,20.3515625 C118.617969,15.515625 122.601563,11.59375 127.515625,11.59375 C132.429688,11.59375 136.414063,15.515625 136.414063,20.3515625 C136.414063,25.1875 132.429688,29.1015625 127.515625,29.1015625 L127.515625,29.1015625 Z M141.75625,33.6328125 L135.303906,27.28125 C136.992969,25.4453125 138.03125,23.0234375 138.03125,20.3515625 C138.03125,14.6328125 133.323438,10 127.515625,10 C121.707813,10 117,14.6328125 117,20.3515625 C117,26.0625 121.707813,30.6953125 127.515625,30.6953125 C130.025,30.6953125 132.326562,29.828125 134.134375,28.3828125 L140.6125,34.7578125 C140.928906,35.0703125 141.440625,35.0703125 141.75625,34.7578125 C142.072656,34.453125 142.072656,33.9453125 141.75625,33.6328125 L141.75625,33.6328125 Z" id="Seach-Icon"></path>
            </g>
        </g>
    </g>
</svg>