<?xml version="1.0" encoding="UTF-8"?>
<svg width="25px" height="25px" viewBox="0 0 25 25" version="1.1" xmlns="http://www.w3.org/2000/svg" xmlns:xlink="http://www.w3.org/1999/xlink">
    <title>Settings Icon</title>
    <g id="Templates" stroke="none" stroke-width="1" fill="none" fill-rule="evenodd">
        <g id="Templates-profile-popup-desktop" transform="translate(-1135.000000, -243.000000)" fill="currentColor" fill-rule="nonzero">
            <g id="Profile-Popup" transform="translate(1106.000000, 93.000000)">
                <g id="Settings-Item" transform="translate(0.000000, 134.000000)">
                    <path d="M51.9336561,33.6116667 L51.1069566,35.055 C50.8786142,35.4541667 50.3735942,35.59 49.9777452,35.36 L47.6818208,34.0233333 C46.5167746,35.3491667 44.9408788,36.2991667 43.1524745,36.6658333 L43.1524745,38.5 C43.1524745,38.9608333 42.7832932,39.3333333 42.3266084,39.3333333 L40.6732096,39.3333333 C40.2165248,39.3333333 39.8473435,38.9608333 39.8473435,38.5 L39.8473435,36.6658333 C38.0589392,36.2991667 36.4830434,35.3491667 35.3179972,34.0233333 L33.0220728,35.36 C32.6262238,35.59 32.1212038,35.4541667 31.8928614,35.055 L31.0661619,33.6116667 C30.8378196,33.2133333 30.9736583,32.7033333 31.3686739,32.4741667 L33.6737653,31.1308333 C33.3995878,30.3025 33.2354146,29.4216667 33.2354146,28.5 C33.2354146,27.5783333 33.3995878,26.6983333 33.6737653,25.8691667 L31.3686739,24.5266667 C30.9736583,24.2966667 30.8378196,23.7875 31.0661619,23.3883333 L31.8928614,21.945 C32.1212038,21.5466667 32.6262238,21.41 33.0220728,21.64 L35.3179972,22.9766667 C36.4830434,21.6508333 38.0589392,20.7008333 39.8473435,20.3341667 L39.8473435,18.5 C39.8473435,18.0391667 40.2165248,17.6666667 40.6732096,17.6666667 L42.3266084,17.6666667 C42.7832932,17.6666667 43.1524745,18.0391667 43.1524745,18.5 L43.1524745,20.3341667 C44.9408788,20.7008333 46.5167746,21.6508333 47.6818208,22.9766667 L49.9777452,21.64 C50.3735942,21.41 50.8786142,21.5466667 51.1069566,21.945 L51.9336561,23.3883333 C52.1619984,23.7875 52.0261597,24.2966667 51.6311441,24.5266667 L49.3260527,25.8691667 C49.6002302,26.6983333 49.7644034,27.5783333 49.7644034,28.5 C49.7644034,29.4216667 49.6002302,30.3025 49.3260527,31.1308333 L51.6311441,32.4741667 C52.0261597,32.7033333 52.1619984,33.2133333 51.9336561,33.6116667 L51.9336561,33.6116667 Z M53.1737052,31.4466667 L51.2377951,30.32 C51.3461328,29.7283333 51.4178023,29.1241667 51.4178023,28.5 C51.4178023,27.8766667 51.3461328,27.2716667 51.2377951,26.68 L53.1737052,25.5533333 C53.9645699,25.0933333 54.2345806,24.0733333 53.7778959,23.2766667 L52.1253303,20.39 C51.6694789,19.5933333 50.6577721,19.3191667 49.8677408,19.78 L47.9118299,20.9175 C46.9984604,20.1341667 45.9600859,19.4933333 44.8058734,19.0808333 L44.8058734,17.6666667 C44.8058734,16.7466667 44.0658441,16 43.1524745,16 L39.8473435,16 C38.9339739,16 38.1939446,16.7466667 38.1939446,17.6666667 L38.1939446,19.0808333 C37.0397321,19.4933333 36.0013576,20.1341667 35.0879881,20.9175 L33.1320772,19.78 C32.3420459,19.3191667 31.3303391,19.5933333 30.8744877,20.39 L29.2219221,23.2766667 C28.7652374,24.0733333 29.0360814,25.0933333 29.8261128,25.5533333 L31.7620229,26.68 C31.6536852,27.2716667 31.5820157,27.8766667 31.5820157,28.5 C31.5820157,29.1241667 31.6536852,29.7283333 31.7620229,30.32 L29.8261128,31.4466667 C29.0360814,31.9066667 28.7652374,32.9266667 29.2219221,33.7233333 L30.8744877,36.61 C31.3303391,37.4066667 32.3420459,37.6808333 33.1320772,37.22 L35.0879881,36.0825 C36.0013576,36.8658333 37.0397321,37.5075 38.1939446,37.9191667 L38.1939446,39.3333333 C38.1939446,40.2533333 38.9339739,41 39.8473435,41 L43.1524745,41 C44.0658441,41 44.8058734,40.2533333 44.8058734,39.3333333 L44.8058734,37.9191667 C45.9600859,37.5075 46.9984604,36.8658333 47.9118299,36.0825 L49.8677408,37.22 C50.6577721,37.6808333 51.6694789,37.4066667 52.1253303,36.61 L53.7778959,33.7233333 C54.2345806,32.9266667 53.9645699,31.9066667 53.1737052,31.4466667 L53.1737052,31.4466667 Z M41.499909,31 C40.130688,31 39.020644,29.8808333 39.020644,28.5 C39.020644,27.12 40.130688,26 41.499909,26 C42.86913,26 43.979174,27.12 43.979174,28.5 C43.979174,29.8808333 42.86913,31 41.499909,31 L41.499909,31 Z M41.499909,24.3333333 C39.2173185,24.3333333 37.3680785,26.1983333 37.3680785,28.5 C37.3680785,30.8016667 39.2173185,32.6666667 41.499909,32.6666667 C43.7824995,32.6666667 45.6325729,30.8016667 45.6325729,28.5 C45.6325729,26.1983333 43.7824995,24.3333333 41.499909,24.3333333 L41.499909,24.3333333 Z" id="Settings-Icon"></path>
                </g>
            </g>
        </g>
    </g>
</svg>
