<?xml version="1.0" encoding="UTF-8"?>
<svg width="18px" height="18px" viewBox="0 0 18 18" version="1.1" xmlns="http://www.w3.org/2000/svg" xmlns:xlink="http://www.w3.org/1999/xlink">
    <title>Add Icon</title>
    <g id="Symbols" stroke="none" stroke-width="1" fill="none" fill-rule="evenodd">
        <g id="Add-Button" transform="translate(-16.000000, -13.000000)" fill="#FFFFFF" fill-rule="nonzero">
            <g id="Add-Icon">
                <path d="M25,13 C25.4911389,13 25.8903928,13.3934069 25.8998292,13.8822885 L25.9,13.9 L25.9,21.1 L33.1,21.1 C33.5970563,21.1 34,21.5029437 34,22 C34,22.4911389 33.6065931,22.8903928 33.1177115,22.8998292 L33.1,22.9 L25.9,22.9 L25.9,30.1 C25.9,30.5970563 25.4970563,31 25,31 C24.5088611,31 24.1096072,30.6065931 24.1001708,30.1177115 L24.1,22.9 L16.9,22.9 C16.4029437,22.9 16,22.4970563 16,22 C16,21.5088611 16.3934069,21.1096072 16.8822885,21.1001708 L24.1,21.1 L24.1,13.9 C24.1,13.4029437 24.5029437,13 25,13 Z"></path>
            </g>
        </g>
    </g>
</svg>