<?xml version="1.0" encoding="UTF-8"?>
<svg width="38px" height="34px" viewBox="0 0 38 34" version="1.1" xmlns="http://www.w3.org/2000/svg" xmlns:xlink="http://www.w3.org/1999/xlink">
    <title>Codebook Add Icon</title>
    <g id="Submission" stroke="none" stroke-width="1" fill="none" fill-rule="evenodd">
        <g id="Submission-desktop" transform="translate(-1196.000000, -214.000000)" fill="currentColor" fill-rule="nonzero">
            <g id="Submission-Details" transform="translate(60.000000, 204.000000)">
                <g id="Actions" transform="translate(1031.000000, 10.000000)">
                    <path d="M131.851925,9.14059066 L132.02267,9.14747138 C132.47322,9.18557683 132.897736,9.3809176 133.219351,9.70158578 C133.580099,10.0612716 133.781602,10.5489008 133.77973,11.052875 L133.77973,11.052875 L133.77973,28.2632187 C133.77973,29.3181091 132.919792,30.1754792 131.856276,30.1754792 C131.717315,30.1754792 131.579887,30.1759529 131.443971,30.1769022 L131.443971,30.1769022 L130.646455,30.1883173 C130.386553,30.1940334 130.132535,30.2016651 129.884232,30.2112261 L129.884232,30.2112261 L129.156306,30.2457104 L128.461681,30.2918522 C124.052683,30.6298388 121.690928,31.7118144 120.144689,33.6390475 L120.237419,33.5290837 C120.077223,33.7982132 119.787825,33.982756 119.453813,33.998855 C119.448821,33.9982444 119.443811,33.9985324 119.4388,33.9987821 C119.427894,33.9998217 119.417066,34 119.406195,34 L119.374601,33.9998815 C119.098701,33.9955978 118.824341,33.8752016 118.634778,33.6387114 C116.739207,31.2738933 113.585648,30.1754792 106.92346,30.1754792 C105.781727,30.1754792 105.000013,29.2600911 105.000013,28.1478855 L105.000013,28.1478855 L105.000013,11.0564348 C104.998134,10.5489008 105.199637,10.0612716 105.560385,9.70158578 C105.922202,9.34083408 106.414252,9.13869987 106.927811,9.14059066 C113.485257,9.16994214 117.497859,10.5044988 119.370212,13.3786375 L119.370212,13.3786375 L119.389868,13.4093859 L119.534791,13.1932045 C121.416752,10.5055232 125.268598,9.22439322 131.445395,9.14415194 L131.445395,9.14415194 L131.851925,9.14059066 Z M106.928,11.052 L106.927851,28.231176 L106.924358,28.2630176 C107.513254,28.2630363 108.078778,28.2717035 108.622084,28.2891912 L108.622084,28.2891912 L109.420523,28.3220596 C113.643084,28.5354744 116.446113,29.3330813 118.442134,30.8062432 L118.44212,16.0187043 C117.567419,12.6885201 114.167382,11.0852724 106.919828,11.0528614 L106.928,11.052 Z M131.850462,11.0522566 L131.474161,11.0561215 C124.456825,11.1437926 121.164318,12.7640916 120.325123,16.0670595 L120.37,15.9 L120.370167,30.7810685 C122.606396,29.143444 125.844229,28.3516627 130.954093,28.2702435 L131.428322,28.2647618 L131.850462,28.2626054 L131.850462,11.0522566 Z M136.518787,0 C136.872474,0 137.15999,0.280857446 137.166786,0.629875278 L137.166575,5.782 L142.351879,5.78267721 C142.709826,5.78267721 143,6.07034308 143,6.4251969 C143,6.77582628 142.716694,7.06085788 142.364633,7.06759466 L137.166575,7.067 L137.166909,12.2078741 C137.166909,12.5627279 136.876735,12.8503938 136.518787,12.8503938 C136.165101,12.8503938 135.877585,12.5695364 135.870789,12.2205185 L135.870575,7.067 L130.685696,7.06771659 C130.327748,7.06771659 130.037575,6.78005073 130.037575,6.4251969 C130.037575,6.07456753 130.320881,5.78953592 130.672941,5.78279915 L135.870575,5.782 L135.870666,0.64251969 C135.870666,0.287665864 136.16084,0 136.518787,0 Z" id="Codebook-Add-Icon"></path>
                </g>
            </g>
        </g>
    </g>
</svg>
