<?xml version="1.0" encoding="UTF-8"?>
<svg width="31px" height="22px" viewBox="0 0 31 22" version="1.1" xmlns="http://www.w3.org/2000/svg" xmlns:xlink="http://www.w3.org/1999/xlink">
    <title>Language Icon</title>
    <g id="Submission" stroke="none" stroke-width="1" fill="none" fill-rule="evenodd">
        <g id="Submission-desktop" transform="translate(-57.000000, -122.000000)" fill="currentColor" fill-rule="nonzero">
            <path d="M76.521899,122.408059 C76.8509421,122.748524 76.9608679,123.233662 76.8088295,123.674378 L70.7351545,143.089898 C70.5673764,143.629571 70.0500701,143.999608 69.4628462,144 C69.0433128,144 68.6484699,143.809801 68.3977877,143.487191 C68.1471056,143.164581 68.0700384,142.747377 68.1899051,142.361816 L74.2635801,122.946296 C74.3881442,122.497721 74.7572417,122.14961 75.227006,122.037648 C75.6967703,121.925687 76.1928559,122.067595 76.521899,122.408059 Z M67.4265834,125.383853 C67.9098263,125.913464 67.8538829,126.718482 67.3016302,127.181913 L60.3453743,133.018097 L67.3009975,138.85428 C67.7178629,139.203782 67.864999,139.764573 67.6702541,140.261656 C67.4755091,140.758739 66.9797197,141.087878 66.4260087,141.087673 C66.1042461,141.087976 65.7933976,140.975809 65.5516526,140.77217 L57.4534192,133.976738 C57.1652683,133.734798 57,133.38538 57,133.018097 C57,132.650813 57.1652683,132.301395 57.4534192,132.059455 L65.5516526,125.264023 C66.1039053,124.800593 66.9433404,124.854243 67.4265834,125.383853 Z M79.4483474,125.264023 L87.5465808,132.059455 C87.8347317,132.301395 88,132.650813 88,133.018097 C88,133.38538 87.8347317,133.734798 87.5465808,133.976738 L79.4483474,140.77217 C79.2064997,140.976045 78.8953601,141.088235 78.5733586,141.087674 C78.0195318,141.088131 77.5235005,140.759082 77.3285914,140.26194 C77.1336823,139.764798 77.2807843,139.203855 77.6977372,138.85428 L84.653993,133.018097 L77.6983698,127.181913 C77.1461171,126.718482 77.0901737,125.913464 77.5734167,125.383853 C78.0566596,124.854243 78.8960947,124.800593 79.4483474,125.264023 Z" id="Language-Icon"></path>
        </g>
    </g>
</svg>
