<?xml version="1.0" encoding="UTF-8"?>
<svg width="14px" height="16px" viewBox="0 0 14 16" version="1.1" xmlns="http://www.w3.org/2000/svg" xmlns:xlink="http://www.w3.org/1999/xlink">
    <title>Length Icon</title>
    <g id="Symbols" stroke="none" stroke-width="1" fill="none" fill-rule="evenodd">
        <g id="Recent-Submission" transform="translate(-20.000000, -54.000000)" fill="currentColor" fill-rule="nonzero">
            <g id="Submission">
                <path d="M33.4166667,63.1428571 L20.5833333,63.1428571 C20.2625,63.1428571 20,63.4 20,63.7142857 L20,64.8571429 C20,65.1727341 20.2611672,65.4285714 20.5833333,65.4285714 L33.4166667,65.4285714 C33.7388328,65.4285714 34,65.1727341 34,64.8571429 L34,63.7142857 C34,63.3986944 33.7388328,63.1428571 33.4166667,63.1428571 Z M27.5833333,58.57 L20.5833333,58.57 C20.2625,58.57 20,58.8271429 20,59.1414286 L20,60.2842857 C20,60.599877 20.2611672,60.8557143 20.5833333,60.8557143 L27.5833333,60.8557143 C27.9054994,60.8557143 28.1666667,60.599877 28.1666667,60.2842857 L28.1666667,59.1414286 C28.1666667,58.8258373 27.9054994,58.57 27.5833333,58.57 Z M27.5833333,67.7142857 L20.5833333,67.7142857 C20.2625,67.7142857 20,67.9714286 20,68.2857143 L20,69.4285714 C20,69.7441627 20.2611672,70 20.5833333,70 L27.5833333,70 C27.9054994,70 28.1666667,69.7441627 28.1666667,69.4285714 L28.1666667,68.2857143 C28.1666667,67.970123 27.9054994,67.7142857 27.5833333,67.7142857 Z M33.4166667,54 L20.5833333,54 C20.2625,54 20,54.2571429 20,54.5714286 L20,55.7142857 C20,56.029877 20.2611672,56.2857143 20.5833333,56.2857143 L33.4166667,56.2857143 C33.7388328,56.2857143 34,56.029877 34,55.7142857 L34,54.5714286 C34,54.2558373 33.7388328,54 33.4166667,54 Z" id="Length-Icon"></path>
            </g>
        </g>
    </g>
</svg>