<?xml version="1.0" encoding="UTF-8"?>
<svg width="12px" height="16px" viewBox="0 0 12 16" version="1.1" xmlns="http://www.w3.org/2000/svg" xmlns:xlink="http://www.w3.org/1999/xlink">
    <title>Execution Time Icon</title>
    <g id="Submission" stroke="none" stroke-width="1" fill="none" fill-rule="evenodd">
        <g id="Submission-desktop" transform="translate(-304.000000, -223.000000)" fill="#E0E0E0" fill-rule="nonzero">
            <g id="Submission-Details" transform="translate(60.000000, 204.000000)">
                <g id="Theoretical-Complexity" transform="translate(203.000000, 0.000000)">
                    <g id="Time-Complexity" transform="translate(41.500000, 15.000000)">
                        <path d="M8.5,19 L2.5,19 L2.5,15.5 C2.5,14.119 3.6755,13 5.125,13 L5.875,13 C7.3245,13 8.5,14.119 8.5,15.5 L8.5,19 L8.5,19 Z M2.5,8.5 L2.5,5 L8.5,5 L8.5,8.5 C8.5,9.881 7.3245,11 5.875,11 L5.125,11 C3.6755,11 2.5,9.881 2.5,8.5 L2.5,8.5 Z M10.5,19 L9.5,19 L9.5,15.5 C9.5,13.567 7.933,12 6,12 C7.933,12 9.5,10.433 9.5,8.5 L9.5,5 L10.5,5 C10.7765,5 11,4.7765 11,4.5 C11,4.224 10.7765,4 10.5,4 L0.5,4 C0.2235,4 0,4.224 0,4.5 C0,4.7765 0.2235,5 0.5,5 L1.5,5 L1.5,8.5 C1.5,10.433 3.067,12 5,12 C3.067,12 1.5,13.567 1.5,15.5 L1.5,19 L0.5,19 C0.2235,19 0,19.224 0,19.5 C0,19.7765 0.2235,20 0.5,20 L10.5,20 C10.7765,20 11,19.7765 11,19.5 C11,19.224 10.7765,19 10.5,19 L10.5,19 Z" id="Execution-Time-Icon"></path>
                    </g>
                </g>
            </g>
        </g>
    </g>
</svg>