<?xml version="1.0" encoding="UTF-8"?>
<svg width="20px" height="20px" viewBox="0 0 20 20" version="1.1" xmlns="http://www.w3.org/2000/svg" xmlns:xlink="http://www.w3.org/1999/xlink">
    <title>Export Icon</title>
    <g id="Codebook" stroke="none" stroke-width="1" fill="none" fill-rule="evenodd">
        <g id="Codebook-desktop" transform="translate(-1210.000000, -129.000000)" fill="currentColor" fill-rule="nonzero">
            <g id="Page-Header" transform="translate(60.000000, 116.000000)">
                <g id="Export-Button" transform="translate(1130.000000, 1.000000)">
                    <path d="M39.2307692,24.3076923 C39.6306134,24.3076923 39.9592045,24.6127631 39.9964787,25.002841 L40,25.0769231 L40,29.1794872 C40,30.6992201 38.7980615,31.9382252 37.2929267,31.9977604 L37.1794872,32 L22.8205128,32 C21.3007799,32 20.0617748,30.7980615 20.0022396,29.2929267 L20,29.1794872 L20,25.0769231 C20,24.6520887 20.3443963,24.3076923 20.7692308,24.3076923 C21.1690749,24.3076923 21.497666,24.6127631 21.5349402,25.002841 L21.5384615,25.0769231 L21.5384615,29.1794872 C21.5384615,29.8592223 22.0674543,30.4154044 22.7362176,30.4588114 L22.8205128,30.4615385 L37.1794872,30.4615385 C37.8592223,30.4615385 38.4154044,29.9325457 38.4588114,29.2637824 L38.4615385,29.1794872 L38.4615385,25.0769231 C38.4615385,24.6520887 38.8059348,24.3076923 39.2307692,24.3076923 Z M29.5195902,25.6777275 C29.5164031,25.6752104 29.5154476,25.6744348 29.5144935,25.6736566 L29.4560717,25.6208514 L24.3278666,20.4926462 C24.0274633,20.1922429 24.0274633,19.705193 24.3278666,19.4047897 C24.6094947,19.1231616 25.0551677,19.1055598 25.3573014,19.3519844 L25.4157232,19.4047897 L29.23,23.22 L29.2307692,12.7692308 C29.2307692,12.3443963 29.5751656,12 30,12 C30.3998442,12 30.7284352,12.3050708 30.7657094,12.6951487 L30.7692308,12.7692308 L30.769,23.219 L34.5842768,19.4047897 C34.8846801,19.1043864 35.3717301,19.1043864 35.6721334,19.4047897 C35.9537615,19.6864178 35.9713633,20.1320908 35.7249387,20.4342245 L35.6721334,20.4926462 L30.5439283,25.6208514 C30.5178984,25.6468813 30.4900116,25.6710543 30.4604838,25.6931548 L30.5439283,25.6208514 C30.5099587,25.6548209 30.4736025,25.6849492 30.4353993,25.7112363 C30.4140501,25.7258257 30.3922864,25.739244 30.3698406,25.7515749 C30.3566406,25.7588893 30.3429966,25.7658538 30.3291985,25.7723847 C30.3133033,25.7798867 30.2972343,25.7868427 30.2808926,25.7932557 C30.2625376,25.8004337 30.2438335,25.806931 30.2249517,25.8126861 C30.2094717,25.8174663 30.1937981,25.8217142 30.1779345,25.8254709 C30.1611964,25.8293687 30.1441592,25.8328001 30.1270441,25.835651 C30.1063593,25.8391429 30.0856434,25.8417276 30.0646889,25.8434723 C30.050649,25.8446299 30.0362337,25.84544 30.0218092,25.8458465 L30,25.8461538 L30,25.8461538 L29.9584066,25.8450355 C29.9419834,25.8441516 29.9255831,25.8427438 29.9092329,25.8408121 L30,25.8461538 C29.9504649,25.8461538 29.9020235,25.8414717 29.855094,25.8325258 C29.8380351,25.8292106 29.8207659,25.8253032 29.8036219,25.8207945 C29.7808105,25.814837 29.758935,25.8079827 29.7375034,25.8002029 C29.7268527,25.7963296 29.7155614,25.7919484 29.7043579,25.7872907 C29.6774392,25.7760541 29.6517102,25.7635643 29.6268287,25.7497344 C29.6201524,25.7460928 29.6135855,25.7423173 29.6070636,25.7384369 L29.6268287,25.7497344 C29.5890107,25.7287139 29.5531504,25.7045975 29.5195902,25.6777275 Z" id="Export-Icon"></path>
                </g>
            </g>
        </g>
    </g>
</svg>
