<?xml version="1.0" encoding="UTF-8"?>
<svg width="25px" height="25px" viewBox="0 0 25 25" version="1.1" xmlns="http://www.w3.org/2000/svg" xmlns:xlink="http://www.w3.org/1999/xlink">
    <title>Invisible</title>
    <g id="Authentication" stroke="none" stroke-width="1" fill="none" fill-rule="evenodd">
        <g id="Authentication-login-desktop" transform="translate(-1216.000000, -535.000000)" fill="#72E4B9" fill-rule="nonzero">
            <g id="Login-Popup" transform="translate(705.000000, 240.000000)">
                <g id="Password-Input" transform="translate(36.000000, 262.000000)">
                    <g id="Toggle-Visibility" transform="translate(472.000000, 22.000000)">
                        <path d="M27.8923828,26.9606445 C25.7020996,22.6898926 20.9352051,18.8125 15.5,18.8125 C10.0266602,18.8125 5.27363281,22.7371582 3.10761719,26.9606445 C2.96416016,27.2403809 2.96416016,27.5721191 3.10761719,27.8519043 C5.29790039,32.1226074 10.0647949,36 15.5,36 C21.6542969,36 26.1907715,31.1698242 27.8923828,27.8518555 C28.0358398,27.5721191 28.0358398,27.2403809 27.8923828,26.9606445 L27.8923828,26.9606445 Z M3.30776367,16.4283203 C3.66860352,16.0274902 4.28613281,15.995166 4.68696289,16.3560547 L6.86196289,18.3144043 C7.26274414,18.6753418 7.29511719,19.2927734 6.93422852,19.6936035 C6.57333984,20.0944824 5.95581055,20.126709 5.5550293,19.7658691 L3.3800293,17.8074707 C2.97924805,17.4466309 2.946875,16.8291504 3.30776367,16.4283203 Z M14.5234375,15.8828125 L14.5234375,11.9765625 C14.5234375,11.4372559 14.9606445,11 15.5,11 C16.0393555,11 16.4765625,11.4372559 16.4765625,11.9765625 L16.4765625,15.8828125 C16.4765625,16.4221191 16.0393555,16.859375 15.5,16.859375 C14.9606445,16.859375 14.5234375,16.4221191 14.5234375,15.8828125 Z M8.33203125,13.7077637 C8.11264648,13.2150391 8.33422852,12.637793 8.82695312,12.4184082 C9.31972656,12.1990234 9.89692383,12.4206055 10.1163086,12.9133301 L11.6098145,16.2678223 C11.8291992,16.760498 11.6076172,17.337793 11.1148926,17.5571777 C10.623584,17.7758789 10.0456543,17.5564941 9.82553711,17.0622559 L8.33203125,13.7077637 Z M24.0657715,19.6936035 C23.7048828,19.2928223 23.737207,18.6753418 24.1380371,18.3144043 L26.3130371,16.3560547 C26.7138184,15.995166 27.3313477,16.0274902 27.6922363,16.4283203 C28.053125,16.8291016 28.0208008,17.446582 27.6199707,17.8074707 L25.4449707,19.7658691 C25.044043,20.1268066 24.4266113,20.0943359 24.0657715,19.6936035 Z M19.3901367,16.2678223 L20.8836426,12.9133301 C21.1030273,12.4206055 21.6802734,12.1990234 22.172998,12.4184082 C22.6657227,12.637793 22.8873047,13.2150391 22.6679199,13.7077637 L21.1744141,17.062207 C20.9540527,17.5571777 20.3755859,17.7755371 19.8850586,17.5571777 C19.3923828,17.337793 19.1708008,16.7605469 19.3901367,16.2678223 L19.3901367,16.2678223 Z M15.5,22.6088867 C12.8547363,22.6088867 10.7026367,24.7609863 10.7026367,27.40625 C10.7026367,30.0515137 12.8547363,32.2036133 15.5,32.2036133 C18.1452637,32.2036133 20.2973633,30.0515137 20.2973633,27.40625 C20.2973633,24.7609863 18.1452637,22.6088867 15.5,22.6088867 Z M15.5,30.2504883 C13.9316895,30.2504883 12.6557617,28.9745605 12.6557617,27.40625 C12.6557617,25.8379395 13.9316895,24.5620117 15.5,24.5620117 C17.0683105,24.5620117 18.3442383,25.8379395 18.3442383,27.40625 C18.3442383,28.9745605 17.0683105,30.2504883 15.5,30.2504883 Z" id="Invisible" transform="translate(15.500000, 23.500000) scale(1, -1) translate(-15.500000, -23.500000) "></path>
                    </g>
                </g>
            </g>
        </g>
    </g>
</svg>