<?xml version="1.0" encoding="UTF-8"?>
<svg width="30px" height="30px" viewBox="0 0 30 30" version="1.1" xmlns="http://www.w3.org/2000/svg" xmlns:xlink="http://www.w3.org/1999/xlink">
    <title>Visible</title>
    <g id="Authentication" stroke="none" stroke-width="1" fill="none" fill-rule="evenodd">
        <g id="Authentication-login-desktop" transform="translate(-1213.000000, -524.000000)" fill="#72E4B9" fill-rule="nonzero">
            <g id="Login-Popup" transform="translate(705.000000, 240.000000)">
                <g id="Password-Input" transform="translate(36.000000, 262.000000)">
                    <g id="Toggle-Visibility" transform="translate(472.000000, 22.000000)">
                        <path d="M29.8708301,19.1527734 C27.2424902,14.0278711 21.5222168,9.375 14.9999707,9.375 C8.43196289,9.375 2.72833008,14.0845898 0.129111328,19.1527734 C-0.0430371094,19.488457 -0.0430371094,19.886543 0.129111328,20.2222852 C2.75745117,25.3471289 8.47772461,30 14.9999707,30 C22.385127,30 27.8288965,24.2037891 29.8708301,20.2222266 C30.0429785,19.886543 30.0429785,19.488457 29.8708301,19.1527734 L29.8708301,19.1527734 Z M14.9999707,27.65625 C9.68106445,27.65625 5.21633789,24.1226367 2.52208008,19.6875 C5.18651367,15.3014648 9.63700195,11.71875 14.9999707,11.71875 C20.3400293,11.71875 24.7987207,15.2774414 27.4778613,19.6875 C24.7711816,24.1428516 20.288584,27.65625 14.9999707,27.65625 Z M0.369287109,6.51398437 C0.802294922,6.03298828 1.54333008,5.99419922 2.02432617,6.42726562 L4.63432617,8.77728516 C5.11526367,9.21041016 5.15411133,9.95132813 4.72104492,10.4323242 C4.28797852,10.9133789 3.54694336,10.9520508 3.06600586,10.519043 L0.456005859,8.16896484 C-0.0249316406,7.73595703 -0.0637792969,6.99498047 0.369287109,6.51398437 Z M13.8280957,5.859375 L13.8280957,1.171875 C13.8280957,0.524707031 14.3527441,0 14.9999707,0 C15.6471973,0 16.1718457,0.524707031 16.1718457,1.171875 L16.1718457,5.859375 C16.1718457,6.50654297 15.6471973,7.03125 14.9999707,7.03125 C14.3527441,7.03125 13.8280957,6.50654297 13.8280957,5.859375 Z M6.3984082,3.24931641 C6.13514648,2.65804688 6.40104492,1.96535156 6.99231445,1.70208984 C7.58364258,1.43882813 8.2762793,1.70472656 8.53954102,2.29599609 L10.331748,6.32138672 C10.5950098,6.91259766 10.3291113,7.60535156 9.7378418,7.86861328 C9.14827148,8.13105469 8.45475586,7.86779297 8.19061523,7.27470703 L6.3984082,3.24931641 Z M25.2788965,10.4323242 C24.8458301,9.95138672 24.8846191,9.21041016 25.3656152,8.77728516 L27.9756152,6.42726562 C28.4565527,5.99419922 29.1975879,6.03298828 29.6306543,6.51398437 C30.0637207,6.99492188 30.0249316,7.73589844 29.5439355,8.16896484 L26.9339355,10.519043 C26.4528223,10.952168 25.7119043,10.9132031 25.2788965,10.4323242 Z M19.6681348,6.32138672 L21.4603418,2.29599609 C21.7236035,1.70472656 22.4162988,1.43882812 23.0075684,1.70208984 C23.5988379,1.96535156 23.8647363,2.65804687 23.6014746,3.24931641 L21.8092676,7.27464844 C21.544834,7.86861328 20.8506738,8.13064453 20.262041,7.86861328 C19.6708301,7.60535156 19.4049316,6.91265625 19.6681348,6.32138672 L19.6681348,6.32138672 Z M14.9999707,13.9306641 C11.8256543,13.9306641 9.24313477,16.5131836 9.24313477,19.6875 C9.24313477,22.8618164 11.8256543,25.4443359 14.9999707,25.4443359 C18.1742871,25.4443359 20.7568066,22.8618164 20.7568066,19.6875 C20.7568066,16.5131836 18.1742871,13.9306641 14.9999707,13.9306641 Z M14.9999707,23.1005859 C13.117998,23.1005859 11.5868848,21.5694727 11.5868848,19.6875 C11.5868848,17.8055273 13.117998,16.2744141 14.9999707,16.2744141 C16.8819434,16.2744141 18.4130566,17.8055273 18.4130566,19.6875 C18.4130566,21.5694727 16.8819434,23.1005859 14.9999707,23.1005859 Z" id="Visible"></path>
                    </g>
                </g>
            </g>
        </g>
    </g>
</svg>