<?xml version="1.0" encoding="UTF-8"?>
<svg width="21px" height="12px" viewBox="0 0 21 12" version="1.1" xmlns="http://www.w3.org/2000/svg" xmlns:xlink="http://www.w3.org/1999/xlink">
    <title>Filter Icon</title>
    <g id="Codebook" stroke="none" stroke-width="1" fill="none" fill-rule="evenodd">
        <g id="Codebook-category-desktop" transform="translate(-70.000000, -215.000000)" fill="currentColor" fill-rule="nonzero">
            <g id="Category-Filter" transform="translate(60.000000, 199.000000)">
                <path d="M22.25,25.8823529 C22.829899,25.8823529 23.3,26.3564044 23.3,26.9411765 C23.3,27.5259486 22.829899,28 22.25,28 L18.75,28 C18.170101,28 17.7,27.5259486 17.7,26.9411765 C17.7,26.3564044 18.170101,25.8823529 18.75,25.8823529 L22.25,25.8823529 Z M26.45,20.9411765 C27.029899,20.9411765 27.5,21.4152279 27.5,22 C27.5,22.5847721 27.029899,23.0588235 26.45,23.0588235 L14.55,23.0588235 C13.970101,23.0588235 13.5,22.5847721 13.5,22 C13.5,21.4152279 13.970101,20.9411765 14.55,20.9411765 L26.45,20.9411765 Z M29.95,16 C30.529899,16 31,16.4740514 31,17.0588235 C31,17.6435956 30.529899,18.1176471 29.95,18.1176471 L11.05,18.1176471 C10.470101,18.1176471 10,17.6435956 10,17.0588235 C10,16.4740514 10.470101,16 11.05,16 L29.95,16 Z" id="Filter-Icon"></path>
            </g>
        </g>
    </g>
</svg>
