<?xml version="1.0" encoding="UTF-8"?>
<svg width="25px" height="25px" viewBox="0 0 25 25" version="1.1" xmlns="http://www.w3.org/2000/svg" xmlns:xlink="http://www.w3.org/1999/xlink">
    <title>General Icon</title>
    <g id="Settings" stroke="none" stroke-width="1" fill="none" fill-rule="evenodd">
        <g id="Settings-handles-desktop" transform="translate(-36.000000, -133.000000)" fill="#E0E0E0" fill-rule="nonzero">
            <g id="Sidebar" transform="translate(0.000000, 79.000000)">
                <g id="Settings-Option" transform="translate(36.000000, 54.000000)">
                    <path d="M22.9336561,17.6116667 L22.1069566,19.055 C21.8786142,19.4541667 21.3735942,19.59 20.9777452,19.36 L18.6818208,18.0233333 C17.5167746,19.3491667 15.9408788,20.2991667 14.1524745,20.6658333 L14.1524745,22.5 C14.1524745,22.9608333 13.7832932,23.3333333 13.3266084,23.3333333 L11.6732096,23.3333333 C11.2165248,23.3333333 10.8473435,22.9608333 10.8473435,22.5 L10.8473435,20.6658333 C9.05893922,20.2991667 7.4830434,19.3491667 6.3179972,18.0233333 L4.02207283,19.36 C3.6262238,19.59 3.12120378,19.4541667 2.89286139,19.055 L2.06616194,17.6116667 C1.83781955,17.2133333 1.97365827,16.7033333 2.36867394,16.4741667 L4.67376534,15.1308333 C4.3995878,14.3025 4.23541462,13.4216667 4.23541462,12.5 C4.23541462,11.5783333 4.3995878,10.6983333 4.67376534,9.86916667 L2.36867394,8.52666667 C1.97365827,8.29666667 1.83781955,7.7875 2.06616194,7.38833333 L2.89286139,5.945 C3.12120378,5.54666667 3.6262238,5.41 4.02207283,5.64 L6.3179972,6.97666667 C7.4830434,5.65083333 9.05893922,4.70083333 10.8473435,4.33416667 L10.8473435,2.5 C10.8473435,2.03916667 11.2165248,1.66666667 11.6732096,1.66666667 L13.3266084,1.66666667 C13.7832932,1.66666667 14.1524745,2.03916667 14.1524745,2.5 L14.1524745,4.33416667 C15.9408788,4.70083333 17.5167746,5.65083333 18.6818208,6.97666667 L20.9777452,5.64 C21.3735942,5.41 21.8786142,5.54666667 22.1069566,5.945 L22.9336561,7.38833333 C23.1619984,7.7875 23.0261597,8.29666667 22.6311441,8.52666667 L20.3260527,9.86916667 C20.6002302,10.6983333 20.7644034,11.5783333 20.7644034,12.5 C20.7644034,13.4216667 20.6002302,14.3025 20.3260527,15.1308333 L22.6311441,16.4741667 C23.0261597,16.7033333 23.1619984,17.2133333 22.9336561,17.6116667 L22.9336561,17.6116667 Z M24.1737052,15.4466667 L22.2377951,14.32 C22.3461328,13.7283333 22.4178023,13.1241667 22.4178023,12.5 C22.4178023,11.8766667 22.3461328,11.2716667 22.2377951,10.68 L24.1737052,9.55333333 C24.9645699,9.09333333 25.2345806,8.07333333 24.7778959,7.27666667 L23.1253303,4.39 C22.6694789,3.59333333 21.6577721,3.31916667 20.8677408,3.78 L18.9118299,4.9175 C17.9984604,4.13416667 16.9600859,3.49333333 15.8058734,3.08083333 L15.8058734,1.66666667 C15.8058734,0.746666667 15.0658441,0 14.1524745,0 L10.8473435,0 C9.93397392,0 9.19394458,0.746666667 9.19394458,1.66666667 L9.19394458,3.08083333 C8.03973214,3.49333333 7.00135763,4.13416667 6.08798808,4.9175 L4.13207719,3.78 C3.34204587,3.31916667 2.33033908,3.59333333 1.87448767,4.39 L0.221922146,7.27666667 C-0.23476263,8.07333333 0.0360814434,9.09333333 0.82611277,9.55333333 L2.76202287,10.68 C2.65368524,11.2716667 2.58201573,11.8766667 2.58201573,12.5 C2.58201573,13.1241667 2.65368524,13.7283333 2.76202287,14.32 L0.82611277,15.4466667 C0.0360814434,15.9066667 -0.23476263,16.9266667 0.221922146,17.7233333 L1.87448767,20.61 C2.33033908,21.4066667 3.34204587,21.6808333 4.13207719,21.22 L6.08798808,20.0825 C7.00135763,20.8658333 8.03973214,21.5075 9.19394458,21.9191667 L9.19394458,23.3333333 C9.19394458,24.2533333 9.93397392,25 10.8473435,25 L14.1524745,25 C15.0658441,25 15.8058734,24.2533333 15.8058734,23.3333333 L15.8058734,21.9191667 C16.9600859,21.5075 17.9984604,20.8658333 18.9118299,20.0825 L20.8677408,21.22 C21.6577721,21.6808333 22.6694789,21.4066667 23.1253303,20.61 L24.7778959,17.7233333 C25.2345806,16.9266667 24.9645699,15.9066667 24.1737052,15.4466667 L24.1737052,15.4466667 Z M12.499909,15 C11.130688,15 10.020644,13.8808333 10.020644,12.5 C10.020644,11.12 11.130688,10 12.499909,10 C13.86913,10 14.979174,11.12 14.979174,12.5 C14.979174,13.8808333 13.86913,15 12.499909,15 L12.499909,15 Z M12.499909,8.33333333 C10.2173185,8.33333333 8.3680785,10.1983333 8.3680785,12.5 C8.3680785,14.8016667 10.2173185,16.6666667 12.499909,16.6666667 C14.7824995,16.6666667 16.6325729,14.8016667 16.6325729,12.5 C16.6325729,10.1983333 14.7824995,8.33333333 12.499909,8.33333333 L12.499909,8.33333333 Z" id="General-Icon"></path>
                </g>
            </g>
        </g>
    </g>
</svg>