<?xml version="1.0" encoding="UTF-8"?>
<svg width="28px" height="21px" viewBox="0 0 28 21" version="1.1" xmlns="http://www.w3.org/2000/svg" xmlns:xlink="http://www.w3.org/1999/xlink">
    <title>Handles Icon</title>
    <g id="Settings" stroke="none" stroke-width="1" fill="none" fill-rule="evenodd">
        <g id="Settings-handles-desktop" transform="translate(-36.000000, -257.000000)" fill="#E0E0E0" fill-rule="nonzero">
            <g id="Sidebar" transform="translate(0.000000, 79.000000)">
                <g id="Settings-Option" transform="translate(0.000000, 159.000000)">
                    <path d="M61.2929688,24.90625 C61.703125,25.1341146 62.0768229,25.414388 62.4140625,25.7470703 C62.7513021,26.0797526 63.0361328,26.4443359 63.2685547,26.8408203 C63.5009766,27.2373047 63.6809896,27.6611328 63.8085938,28.1123047 C63.9361979,28.5634766 64,29.0260417 64,29.5 L62.25,29.5 C62.25,29.0260417 62.1565755,28.5748698 61.9697266,28.1464844 C61.7828776,27.718099 61.5322266,27.3466797 61.2177734,27.0322266 C60.9033203,26.7177734 60.531901,26.4671224 60.1035156,26.2802734 C59.6751302,26.0934245 59.2239583,26 58.75,26 C58.2669271,26 57.8134766,26.0934245 57.3896484,26.2802734 C56.9658203,26.4671224 56.5966797,26.7177734 56.2822266,27.0322266 C55.9677734,27.3466797 55.7171224,27.718099 55.5302734,28.1464844 C55.3434245,28.5748698 55.25,29.0260417 55.25,29.5 C55.25,30.3294271 55.0608724,31.1178385 54.6826172,31.8652344 C54.304362,32.6126302 53.7825521,33.2324219 53.1171875,33.7246094 C53.7096354,34.0253906 54.2451172,34.3968099 54.7236328,34.8388672 C55.2021484,35.2809245 55.610026,35.773112 55.9472656,36.3154297 C56.2845052,36.8577474 56.5442708,37.4410807 56.7265625,38.0654297 C56.9088542,38.6897786 57,39.3346354 57,40 L55.25,40 C55.25,39.2799479 55.1110026,38.6009115 54.8330078,37.9628906 C54.555013,37.3248698 54.1790365,36.7688802 53.7050781,36.2949219 C53.2311198,35.8209635 52.6751302,35.444987 52.0371094,35.1669922 C51.3990885,34.8889974 50.7200521,34.75 50,34.75 C49.2799479,34.75 48.6009115,34.8889974 47.9628906,35.1669922 C47.3248698,35.444987 46.7688802,35.8209635 46.2949219,36.2949219 C45.8209635,36.7688802 45.444987,37.3248698 45.1669922,37.9628906 C44.8889974,38.6009115 44.75,39.2799479 44.75,40 L43,40 C43,39.3346354 43.0911458,38.6897786 43.2734375,38.0654297 C43.4557292,37.4410807 43.7154948,36.8577474 44.0527344,36.3154297 C44.389974,35.773112 44.7978516,35.2809245 45.2763672,34.8388672 C45.7548828,34.3968099 46.2903646,34.0253906 46.8828125,33.7246094 C46.2174479,33.2324219 45.695638,32.6126302 45.3173828,31.8652344 C44.9391276,31.1178385 44.75,30.3294271 44.75,29.5 C44.75,29.0260417 44.6565755,28.5748698 44.4697266,28.1464844 C44.2828776,27.718099 44.0322266,27.3466797 43.7177734,27.0322266 C43.4033203,26.7177734 43.031901,26.4671224 42.6035156,26.2802734 C42.1751302,26.0934245 41.7239583,26 41.25,26 C40.7669271,26 40.3134766,26.0934245 39.8896484,26.2802734 C39.4658203,26.4671224 39.0966797,26.7177734 38.7822266,27.0322266 C38.4677734,27.3466797 38.2171224,27.718099 38.0302734,28.1464844 C37.8434245,28.5748698 37.75,29.0260417 37.75,29.5 L36,29.5 C36,29.0260417 36.0638021,28.5634766 36.1914062,28.1123047 C36.3190104,27.6611328 36.4990234,27.2373047 36.7314453,26.8408203 C36.9638672,26.4443359 37.2486979,26.0797526 37.5859375,25.7470703 C37.9231771,25.414388 38.296875,25.1341146 38.7070312,24.90625 C38.40625,24.5872396 38.1715495,24.218099 38.0029297,23.7988281 C37.8343099,23.3795573 37.75,22.9466146 37.75,22.5 C37.75,22.0260417 37.8434245,21.5748698 38.0302734,21.1464844 C38.2171224,20.718099 38.4677734,20.3466797 38.7822266,20.0322266 C39.0966797,19.7177734 39.4658203,19.4671224 39.8896484,19.2802734 C40.3134766,19.0934245 40.7669271,19 41.25,19 C41.7239583,19 42.1751302,19.0934245 42.6035156,19.2802734 C43.031901,19.4671224 43.4033203,19.7177734 43.7177734,20.0322266 C44.0322266,20.3466797 44.2828776,20.718099 44.4697266,21.1464844 C44.6565755,21.5748698 44.75,22.0260417 44.75,22.5 C44.75,22.9466146 44.6656901,23.3795573 44.4970703,23.7988281 C44.3284505,24.218099 44.09375,24.5872396 43.7929688,24.90625 C44.5403646,25.3164062 45.1510417,25.8815104 45.625,26.6015625 C46.1171875,25.8723958 46.7483724,25.2981771 47.5185547,24.8789062 C48.288737,24.4596354 49.1158854,24.25 50,24.25 C50.8841146,24.25 51.711263,24.4596354 52.4814453,24.8789062 C53.2516276,25.2981771 53.8828125,25.8723958 54.375,26.6015625 C54.8489583,25.8815104 55.4596354,25.3164062 56.2070312,24.90625 C55.90625,24.5872396 55.6715495,24.218099 55.5029297,23.7988281 C55.3343099,23.3795573 55.25,22.9466146 55.25,22.5 C55.25,22.0260417 55.3434245,21.5748698 55.5302734,21.1464844 C55.7171224,20.718099 55.9677734,20.3466797 56.2822266,20.0322266 C56.5966797,19.7177734 56.9658203,19.4671224 57.3896484,19.2802734 C57.8134766,19.0934245 58.2669271,19 58.75,19 C59.2239583,19 59.6751302,19.0934245 60.1035156,19.2802734 C60.531901,19.4671224 60.9033203,19.7177734 61.2177734,20.0322266 C61.5322266,20.3466797 61.7828776,20.718099 61.9697266,21.1464844 C62.1565755,21.5748698 62.25,22.0260417 62.25,22.5 C62.25,22.9466146 62.1656901,23.3795573 61.9970703,23.7988281 C61.8284505,24.218099 61.59375,24.5872396 61.2929688,24.90625 Z M39.5,22.5 C39.5,22.7460938 39.5455729,22.9739583 39.6367188,23.1835938 C39.7278646,23.3932292 39.8531901,23.5777995 40.0126953,23.7373047 C40.1722005,23.8968099 40.3567708,24.0221354 40.5664062,24.1132812 C40.7760417,24.2044271 41.0039062,24.25 41.25,24.25 C41.4960938,24.25 41.7239583,24.2044271 41.9335938,24.1132812 C42.1432292,24.0221354 42.3277995,23.8968099 42.4873047,23.7373047 C42.6468099,23.5777995 42.7721354,23.3932292 42.8632812,23.1835938 C42.9544271,22.9739583 43,22.7460938 43,22.5 C43,22.2539062 42.9544271,22.0260417 42.8632812,21.8164062 C42.7721354,21.6067708 42.6468099,21.4222005 42.4873047,21.2626953 C42.3277995,21.1031901 42.1432292,20.9778646 41.9335938,20.8867188 C41.7239583,20.7955729 41.4960938,20.75 41.25,20.75 C41.0039062,20.75 40.7760417,20.7955729 40.5664062,20.8867188 C40.3567708,20.9778646 40.1722005,21.1031901 40.0126953,21.2626953 C39.8531901,21.4222005 39.7278646,21.6067708 39.6367188,21.8164062 C39.5455729,22.0260417 39.5,22.2539062 39.5,22.5 Z M50,33 C50.4739583,33 50.9251302,32.9065755 51.3535156,32.7197266 C51.781901,32.5328776 52.1533203,32.2822266 52.4677734,31.9677734 C52.7822266,31.6533203 53.0328776,31.2841797 53.2197266,30.8603516 C53.4065755,30.4365234 53.5,29.9830729 53.5,29.5 C53.5,29.0260417 53.4065755,28.5748698 53.2197266,28.1464844 C53.0328776,27.718099 52.7822266,27.3466797 52.4677734,27.0322266 C52.1533203,26.7177734 51.781901,26.4671224 51.3535156,26.2802734 C50.9251302,26.0934245 50.4739583,26 50,26 C49.5169271,26 49.0634766,26.0934245 48.6396484,26.2802734 C48.2158203,26.4671224 47.8466797,26.7177734 47.5322266,27.0322266 C47.2177734,27.3466797 46.9671224,27.718099 46.7802734,28.1464844 C46.5934245,28.5748698 46.5,29.0260417 46.5,29.5 C46.5,29.9830729 46.5934245,30.4365234 46.7802734,30.8603516 C46.9671224,31.2841797 47.2177734,31.6533203 47.5322266,31.9677734 C47.8466797,32.2822266 48.2158203,32.5328776 48.6396484,32.7197266 C49.0634766,32.9065755 49.5169271,33 50,33 Z M57,22.5 C57,22.7460938 57.0455729,22.9739583 57.1367188,23.1835938 C57.2278646,23.3932292 57.3531901,23.5777995 57.5126953,23.7373047 C57.6722005,23.8968099 57.8567708,24.0221354 58.0664062,24.1132812 C58.2760417,24.2044271 58.5039062,24.25 58.75,24.25 C58.9960938,24.25 59.2239583,24.2044271 59.4335938,24.1132812 C59.6432292,24.0221354 59.8277995,23.8968099 59.9873047,23.7373047 C60.1468099,23.5777995 60.2721354,23.3932292 60.3632812,23.1835938 C60.4544271,22.9739583 60.5,22.7460938 60.5,22.5 C60.5,22.2539062 60.4544271,22.0260417 60.3632812,21.8164062 C60.2721354,21.6067708 60.1468099,21.4222005 59.9873047,21.2626953 C59.8277995,21.1031901 59.6432292,20.9778646 59.4335938,20.8867188 C59.2239583,20.7955729 58.9960938,20.75 58.75,20.75 C58.5039062,20.75 58.2760417,20.7955729 58.0664062,20.8867188 C57.8567708,20.9778646 57.6722005,21.1031901 57.5126953,21.2626953 C57.3531901,21.4222005 57.2278646,21.6067708 57.1367188,21.8164062 C57.0455729,22.0260417 57,22.2539062 57,22.5 Z" id="Handles-Icon"></path>
                </g>
            </g>
        </g>
    </g>
</svg>