<?xml version="1.0" encoding="UTF-8"?>
<svg width="39px" height="30px" viewBox="0 0 39 30" version="1.1" xmlns="http://www.w3.org/2000/svg" xmlns:xlink="http://www.w3.org/1999/xlink">
    <title>Back Icon</title>
    <g id="Templates" stroke="none" stroke-width="1" fill="none" fill-rule="evenodd">
        <g id="Templates-algorithms-desktop" transform="translate(-59.000000, -126.000000)" fill="currentColor" fill-rule="nonzero">
            <g id="Algorithm-Header" transform="translate(59.000000, 117.000000)">
                <path d="M39,24 C39,25.137931 38.0763158,26.0689655 36.9473684,26.0689655 L6.97894737,26.0689655 L16.2671053,35.4827586 C17.0881579,36.3103448 17.0881579,37.6034483 16.2671053,38.4310345 C15.9078947,38.7931034 15.3947368,39 14.8302632,39 C14.3171053,39 13.7526316,38.7931034 13.3934211,38.3793103 L0.615789474,25.4482759 C-0.205263158,24.6206897 -0.205263158,23.3275862 0.615789474,22.5517241 L13.3934211,9.62068966 C14.2144737,8.79310345 15.4973684,8.79310345 16.3184211,9.62068966 C17.1394737,10.4482759 17.1394737,11.7413793 16.3184211,12.5689655 L6.97894737,21.9310345 L36.9473684,21.9310345 C38.0763158,21.9310345 39,22.862069 39,24 Z" id="Back-Icon"></path>
            </g>
        </g>
    </g>
</svg>