<?xml version="1.0" encoding="UTF-8"?>
<svg width="15px" height="16px" viewBox="0 0 15 16" version="1.1" xmlns="http://www.w3.org/2000/svg" xmlns:xlink="http://www.w3.org/1999/xlink">
    <title>Length Icon</title>
    <g id="Submission" stroke="none" stroke-width="1" fill="none" fill-rule="evenodd">
        <g id="Submission-desktop" transform="translate(-718.000000, -223.000000)" fill="#E0E0E0" fill-rule="nonzero">
            <g id="Submission-Details" transform="translate(60.000000, 204.000000)">
                <g id="Resource-Taken" transform="translate(500.000000, 0.000000)">
                    <path d="M171.946184,28.1428571 L158.835673,28.1428571 C158.50791,28.1428571 158.239741,28.4 158.239741,28.7142857 L158.239741,29.8571429 C158.239741,30.1727341 158.506549,30.4285714 158.835673,30.4285714 L171.946184,30.4285714 C172.275309,30.4285714 172.542117,30.1727341 172.542117,29.8571429 L172.542117,28.7142857 C172.542117,28.3986944 172.275309,28.1428571 171.946184,28.1428571 Z M165.986861,23.57 L158.835673,23.57 C158.50791,23.57 158.239741,23.8271429 158.239741,24.1414286 L158.239741,25.2842857 C158.239741,25.599877 158.506549,25.8557143 158.835673,25.8557143 L165.986861,25.8557143 C166.315985,25.8557143 166.582793,25.599877 166.582793,25.2842857 L166.582793,24.1414286 C166.582793,23.8258373 166.315985,23.57 165.986861,23.57 Z M165.986861,32.7142857 L158.835673,32.7142857 C158.50791,32.7142857 158.239741,32.9714286 158.239741,33.2857143 L158.239741,34.4285714 C158.239741,34.7441627 158.506549,35 158.835673,35 L165.986861,35 C166.315985,35 166.582793,34.7441627 166.582793,34.4285714 L166.582793,33.2857143 C166.582793,32.970123 166.315985,32.7142857 165.986861,32.7142857 Z M171.946184,19 L158.835673,19 C158.50791,19 158.239741,19.2571429 158.239741,19.5714286 L158.239741,20.7142857 C158.239741,21.029877 158.506549,21.2857143 158.835673,21.2857143 L171.946184,21.2857143 C172.275309,21.2857143 172.542117,21.029877 172.542117,20.7142857 L172.542117,19.5714286 C172.542117,19.2558373 172.275309,19 171.946184,19 Z" id="Length-Icon"></path>
                </g>
            </g>
        </g>
    </g>
</svg>