<?xml version="1.0" encoding="UTF-8"?>
<svg width="16px" height="20px" viewBox="0 0 16 20" version="1.1" xmlns="http://www.w3.org/2000/svg" xmlns:xlink="http://www.w3.org/1999/xlink">
    <title>Location Icon</title>
    <g id="Profile" stroke="none" stroke-width="1" fill="none" fill-rule="evenodd">
        <g id="Profile-desktop" transform="translate(-200.000000, -214.000000)" fill="#E0E0E0" fill-rule="nonzero">
            <g id="Header" transform="translate(0.000000, 80.000000)">
                <g id="Avatar-Item" transform="translate(60.000000, 50.000000)">
                    <path d="M148,84 C143.628055,84.1124032 140.109905,87.7105112 140,92.1818182 C140.074625,93.5038023 140.431267,94.7930611 141.044889,95.9590909 C141.063556,95.9954545 141.084,96.0318182 141.106222,96.0681818 C145.944,104 147.384889,104 148,104 C148.959556,104 150,103.309091 152.463556,99.7863636 C153.748444,97.95 154.848,96.1454545 154.894222,96.0681818 C154.916444,96.0318182 154.936444,95.9954545 154.955111,95.9590909 C155.568639,94.7930223 155.925275,93.5037851 156,92.1818182 C155.890095,87.7105112 152.371945,84.1124032 148,84 L148,84 Z M153.762222,95.35 C153.762222,95.35 149.327556,102.636364 148,102.636364 C146.683556,102.636364 142.237778,95.35 142.237778,95.35 C141.717654,94.3724851 141.409197,93.2919894 141.333333,92.1818182 C141.333333,88.4162403 144.318102,85.3636364 148,85.3636364 C151.681898,85.3636364 154.666667,88.4162403 154.666667,92.1818182 C154.590858,93.2919995 154.282397,94.3725069 153.762222,95.35 L153.762222,95.35 Z M148,88.0909091 C146.036321,88.0909091 144.444444,89.7189645 144.444444,91.7272727 C144.444444,93.7355809 146.036321,95.3636364 148,95.3636364 C149.963679,95.3636364 151.555556,93.7355809 151.555556,91.7272727 C151.553107,89.7200028 149.962664,88.0934135 148,88.0909091 Z M148,94 C146.772701,94 145.777778,92.9824653 145.777778,91.7272727 C145.777778,90.4720801 146.772701,89.4545455 148,89.4545455 C149.227299,89.4545455 150.222222,90.4720801 150.222222,91.7272727 C150.222222,92.9824653 149.227299,94 148,94 L148,94 Z" id="Location-Icon"></path>
                </g>
            </g>
        </g>
    </g>
</svg>