<?xml version="1.0" encoding="UTF-8"?>
<svg width="19px" height="18px" viewBox="0 0 19 18" version="1.1" xmlns="http://www.w3.org/2000/svg" xmlns:xlink="http://www.w3.org/1999/xlink">
    <title>Memory Icon</title>
    <g id="Submission" stroke="none" stroke-width="1" fill="none" fill-rule="evenodd">
        <g id="Submission-desktop" transform="translate(-393.000000, -222.000000)" fill="#E0E0E0" fill-rule="nonzero">
            <g id="Submission-Details" transform="translate(60.000000, 204.000000)">
                <g id="Theoretical-Complexity" transform="translate(203.000000, 0.000000)">
                    <g id="Memory-Complexity" transform="translate(130.500000, 15.000000)">
                        <path d="M11.2978723,3 C11.5964794,3 11.841874,3.22782948 11.8697107,3.51914297 L11.8723404,3.57446809 L11.872,5.297 L13.5957447,5.29787234 C14.7084886,5.29787234 15.6197061,6.16070965 15.6968389,7.25382605 L15.7021277,7.40425532 L15.702,9.127 L17.4255319,9.12765957 C17.7428019,9.12765957 18,9.3848577 18,9.70212766 C18,10.0007347 17.7721705,10.2461293 17.480857,10.273966 L17.4255319,10.2765957 L15.702,10.276 L15.702,12.957 L17.4255319,12.9574468 C17.7428019,12.9574468 18,13.2146449 18,13.5319149 C18,13.8305219 17.7721705,14.0759165 17.480857,14.1037532 L17.4255319,14.106383 L15.702,14.106 L15.7021277,16.5957447 C15.7021277,17.7084886 14.8392904,18.6197061 13.746174,18.6968389 L13.5957447,18.7021277 L11.872,18.702 L11.8723404,20.4255319 C11.8723404,20.7428019 11.6151423,21 11.2978723,21 C10.9992653,21 10.7538707,20.7721705 10.726034,20.480857 L10.7234043,20.4255319 L10.723,18.702 L7.276,18.702 L7.27659574,20.4255319 C7.27659574,20.7428019 7.01939762,21 6.70212766,21 C6.40352064,21 6.15812604,20.7721705 6.13028933,20.480857 L6.12765957,20.4255319 L6.127,18.702 L4.40425532,18.7021277 C3.29151139,18.7021277 2.38029392,17.8392904 2.3031611,16.746174 L2.29787234,16.5957447 L2.297,14.106 L0.574468085,14.106383 C0.257198122,14.106383 0,13.8491849 0,13.5319149 C0,13.2333079 0.227829479,12.9879133 0.519142975,12.9600766 L0.574468085,12.9574468 L2.297,12.957 L2.297,10.276 L0.574468085,10.2765957 C0.257198122,10.2765957 0,10.0193976 0,9.70212766 C0,9.40352064 0.227829479,9.15812604 0.519142975,9.13028933 L0.574468085,9.12765957 L2.297,9.127 L2.29787234,7.40425532 C2.29787234,6.29151139 3.16070965,5.38029392 4.25382605,5.3031611 L4.40425532,5.29787234 L6.127,5.297 L6.12765957,3.57446809 C6.12765957,3.25719812 6.3848577,3 6.70212766,3 C7.00073468,3 7.24612928,3.22782948 7.27396599,3.51914297 L7.27659574,3.57446809 L7.276,5.297 L10.723,5.297 L10.7234043,3.57446809 C10.7234043,3.25719812 10.9806024,3 11.2978723,3 Z M13.5957447,6.44680851 L4.40425532,6.44680851 C3.87547205,6.44680851 3.44680851,6.87547205 3.44680851,7.40425532 L3.44680851,7.40425532 L3.44680851,16.5957447 C3.44680851,17.124528 3.87547205,17.5531915 4.40425532,17.5531915 L4.40425532,17.5531915 L13.5957447,17.5531915 C14.124528,17.5531915 14.5531915,17.124528 14.5531915,16.5957447 L14.5531915,16.5957447 L14.5531915,7.40425532 C14.5531915,6.87547205 14.124528,6.44680851 13.5957447,6.44680851 L13.5957447,6.44680851 Z M11.2978723,9.12765957 C11.6151423,9.12765957 11.8723404,9.3848577 11.8723404,9.70212766 L11.8723404,9.70212766 L11.8723404,14.2978723 C11.8723404,14.6151423 11.6151423,14.8723404 11.2978723,14.8723404 L11.2978723,14.8723404 L6.70212766,14.8723404 C6.3848577,14.8723404 6.12765957,14.6151423 6.12765957,14.2978723 L6.12765957,14.2978723 L6.12765957,9.70212766 C6.12765957,9.3848577 6.3848577,9.12765957 6.70212766,9.12765957 L6.70212766,9.12765957 Z M10.7234043,10.2765957 L7.27659574,10.2765957 L7.27659574,13.7234043 L10.7234043,13.7234043 L10.7234043,10.2765957 Z" id="Memory-Icon"></path>
                    </g>
                </g>
            </g>
        </g>
    </g>
</svg>