<?xml version="1.0" encoding="UTF-8"?>
<svg width="12px" height="20px" viewBox="0 0 12 20" version="1.1" xmlns="http://www.w3.org/2000/svg" xmlns:xlink="http://www.w3.org/1999/xlink">
    <title>Prev Icon</title>
    <g id="Submissions" stroke="none" stroke-width="1" fill="none" fill-rule="evenodd">
        <g id="Submissions-desktop" transform="translate(-1254.000000, -1033.000000)" fill="#FFFFFF" fill-rule="nonzero">
            <g id="Submissions-Table" transform="translate(46.000000, 185.000000)">
                <g id="Pagination" transform="translate(1208.000000, 840.000000)">
                    <path d="M11.7539338,17.3623672 L1.47408435,8.24380079 C1.1367594,7.91873307 0.5905327,7.91873307 0.252351596,8.24380079 C-0.0841171987,8.56886851 -0.0841171987,9.10231298 0.252351596,9.4273807 L9.91234501,17.9958325 L0.252351596,26.5726193 C-0.0841171987,26.897687 -0.0841171987,27.4227964 0.252351596,27.7561992 C0.5905327,28.0812669 1.1367594,28.0812669 1.47408435,27.7561992 L11.7539338,18.6376328 C11.9337262,18.4625964 12.0107802,18.2292144 11.998794,17.9958325 C12.0107802,17.7707856 11.9337262,17.5374036 11.7539338,17.3623672" id="Prev-Icon" transform="translate(6.000000, 18.000000) scale(-1, 1) translate(-6.000000, -18.000000) "></path>
                </g>
            </g>
        </g>
    </g>
</svg>