<?xml version="1.0" encoding="UTF-8"?>
<svg width="31px" height="24px" viewBox="0 0 31 24" version="1.1" xmlns="http://www.w3.org/2000/svg" xmlns:xlink="http://www.w3.org/1999/xlink">
    <title>Open Icon</title>
    <g id="Symbols" stroke="none" stroke-width="1" fill="none" fill-rule="evenodd">
        <g id="Algorithm" transform="translate(-788.000000, -21.000000)" fill="currentColor" fill-rule="nonzero">
            <g id="Open-Icon">
                <path d="M818.510526,34.1772806 L808.353947,44.5043029 C808.027632,44.8347676 807.619737,45 807.211842,45 C806.803947,45 806.396053,44.8347676 806.069737,44.5043029 C805.417105,43.8433735 805.417105,42.8106713 806.069737,42.1497418 L813.452632,34.6729776 L789.631579,34.6729776 C788.734211,34.6729776 788,33.929432 788,33.020654 C788,32.1118761 788.734211,31.3683305 789.631579,31.3683305 L813.452632,31.3683305 L806.028947,23.8502582 C805.376316,23.1893287 805.376316,22.1566265 806.028947,21.4956971 C806.681579,20.8347676 807.701316,20.8347676 808.353947,21.4956971 L818.510526,31.8227194 C819.163158,32.4836489 819.163158,33.5576592 818.510526,34.1772806 Z"></path>
            </g>
        </g>
    </g>
</svg>