<?xml version="1.0" encoding="UTF-8"?>
<svg width="18px" height="29px" viewBox="0 0 18 29" version="1.1" xmlns="http://www.w3.org/2000/svg" xmlns:xlink="http://www.w3.org/1999/xlink">
    <title>Security Icon</title>
    <g id="Settings" stroke="none" stroke-width="1" fill="none" fill-rule="evenodd">
        <g id="Settings-handles-desktop" transform="translate(-40.000000, -192.000000)" fill="#E0E0E0" fill-rule="nonzero">
            <g id="Sidebar" transform="translate(0.000000, 79.000000)">
                <g id="Settings-Option" transform="translate(40.000000, 113.000000)">
                    <path d="M9,27.1875 C5.0238,27.1875 1.8,23.9413125 1.8,19.9375 C1.8,15.9336875 5.0238,12.6875 9,12.6875 C12.8412,12.6875 16.2,16.069625 16.2,19.9375 C16.2,23.9413125 12.9762,27.1875 9,27.1875 L9,27.1875 Z M3.6,7.25 C3.6,4.24759375 6.0183,1.8125 9,1.8125 C11.9817,1.8125 14.4,4.24759375 14.4,7.25 L14.4,12.7001875 C12.8943,11.5592187 11.0295,10.875 9,10.875 C6.9714,10.875 5.1057,11.5592187 3.6,12.7001875 L3.6,7.25 L3.6,7.25 Z M16.2,14.5172188 L16.2,7.25 C16.2,3.2461875 12.9762,0 9,0 C5.0238,0 1.8,3.2461875 1.8,7.25 L1.8,14.5172188 C0.675,16.02975 0,17.9020625 0,19.9375 C0,24.9427188 4.0302,29 9,29 C13.9698,29 18,24.9427188 18,19.9375 C18,17.9020625 17.325,16.02975 16.2,14.5172188 L16.2,14.5172188 Z M9,18.125 C8.5023,18.125 8.1,18.531 8.1,19.03125 L8.1,22.65625 C8.1,23.1574062 8.5023,23.5625 9,23.5625 C9.4977,23.5625 9.9,23.1574062 9.9,22.65625 L9.9,19.03125 C9.9,18.531 9.4977,18.125 9,18.125 L9,18.125 Z" id="Security-Icon"></path>
                </g>
            </g>
        </g>
    </g>
</svg>