<?xml version="1.0" encoding="UTF-8"?>
<svg width="11px" height="16px" viewBox="0 0 11 16" version="1.1" xmlns="http://www.w3.org/2000/svg" xmlns:xlink="http://www.w3.org/1999/xlink">
    <title>Execution Time Icon</title>
    <g id="Symbols" stroke="none" stroke-width="1" fill="none" fill-rule="evenodd">
        <g id="Recent-Submission" transform="translate(-125.000000, -54.000000)" fill="currentColor" fill-rule="nonzero">
            <g id="Submission">
                <path d="M133.5,69 L127.5,69 L127.5,65.5 C127.5,64.119 128.6755,63 130.125,63 L130.875,63 C132.3245,63 133.5,64.119 133.5,65.5 L133.5,69 L133.5,69 Z M127.5,58.5 L127.5,55 L133.5,55 L133.5,58.5 C133.5,59.881 132.3245,61 130.875,61 L130.125,61 C128.6755,61 127.5,59.881 127.5,58.5 L127.5,58.5 Z M135.5,69 L134.5,69 L134.5,65.5 C134.5,63.567 132.933,62 131,62 C132.933,62 134.5,60.433 134.5,58.5 L134.5,55 L135.5,55 C135.7765,55 136,54.7765 136,54.5 C136,54.224 135.7765,54 135.5,54 L125.5,54 C125.2235,54 125,54.224 125,54.5 C125,54.7765 125.2235,55 125.5,55 L126.5,55 L126.5,58.5 C126.5,60.433 128.067,62 130,62 C128.067,62 126.5,63.567 126.5,65.5 L126.5,69 L125.5,69 C125.2235,69 125,69.224 125,69.5 C125,69.7765 125.2235,70 125.5,70 L135.5,70 C135.7765,70 136,69.7765 136,69.5 C136,69.224 135.7765,69 135.5,69 L135.5,69 Z" id="Execution-Time-Icon"></path>
            </g>
        </g>
    </g>
</svg>