<?xml version="1.0" encoding="UTF-8"?>
<svg width="18px" height="20px" viewBox="0 0 18 20" version="1.1" xmlns="http://www.w3.org/2000/svg" xmlns:xlink="http://www.w3.org/1999/xlink">
    <title>Test Status Icon</title>
    <g id="Submission" stroke="none" stroke-width="1" fill="none" fill-rule="evenodd">
        <g id="Submission-desktop" transform="translate(-76.000000, -1060.000000)" fill="#E0E0E0" fill-rule="nonzero">
            <g id="Header" transform="translate(60.000000, 1051.000000)">
                <path d="M24.9999996,10.3636356 C32.1052624,10.3636356 32.5789469,12.1818165 32.5789469,12.1818165 L32.5789469,18.2272678 C32.579768,21.511631 30.7333992,24.5407532 27.7497363,26.1499909 L24.9999996,27.6363537 L22.2502629,26.1499909 C19.2665999,24.5407532 17.4202312,21.511631 17.4210523,18.2272678 L17.4210523,12.1818165 C17.4210523,12.1818165 17.4210523,10.3636356 24.9999996,10.3636356 M25,9 C21.6339997,9 19.1893156,9.35454527 17.7327368,10.0545449 C16.1250526,10.8227263 16,11.8772712 16,12.1818165 L16,18.2272678 C16.0026547,22.0039691 18.1248106,25.4865727 21.5534734,27.3408993 L24.3032101,28.8227167 C24.7350802,29.0590944 25.264919,29.0590944 25.696789,28.8227167 L28.4465257,27.3408993 C31.8751886,25.4865727 33.9973445,22.0039691 34,18.2272678 L34,12.1818165 C34,12.0699452 33.9858076,11.9584899 33.9573676,11.8499985 C33.6802623,10.7863627 32.1474203,9 25,9 L25,9 Z M24.5263154,21.4999933 C24.3378645,21.499508 24.1572379,21.4276281 24.0237365,21.2999934 L20.7079471,18.118177 C20.4470809,17.8495319 20.4547782,17.4308958 20.7253581,17.1712486 C20.9959379,16.9116013 21.432201,16.904215 21.7121576,17.1545411 L24.5258417,19.8545397 L29.2342625,15.3363603 C29.4113925,15.1539484 29.6781572,15.0788611 29.9299046,15.1405553 C30.181652,15.2022495 30.3782306,15.3908854 30.4425225,15.6324611 C30.5068143,15.8740368 30.4285655,16.1300229 30.238473,16.2999961 L25.0279469,21.2999934 C24.8946784,21.427407 24.7144378,21.4992688 24.5263154,21.4999933 L24.5263154,21.4999933 Z" id="Test-Status-Icon"></path>
            </g>
        </g>
    </g>
</svg>