<?xml version="1.0" encoding="UTF-8"?>
<svg width="30px" height="30px" viewBox="0 0 30 30" version="1.1" xmlns="http://www.w3.org/2000/svg" xmlns:xlink="http://www.w3.org/1999/xlink">
    <title>Upvote Icon</title>
    <g id="Submission" stroke="none" stroke-width="1" fill="none" fill-rule="evenodd">
        <g id="Submission-desktop" transform="translate(-1091.000000, -216.000000)" fill="#E0E0E0" fill-rule="nonzero">
            <g id="Submission-Details" transform="translate(60.000000, 204.000000)">
                <g id="Actions" transform="translate(1031.000000, 10.000000)">
                    <path d="M19.5246965,32 C15.4419607,32 9.02152926,30.6630435 7.44111538,29.5543478 C7.0789372,29.2934783 6.88138546,28.9021739 6.88138546,28.4782609 L6.88138546,15.7282609 C6.88138546,15.3369565 7.0789372,14.9456522 7.3752648,14.7173913 C7.47404067,14.6521739 9.77881092,12.8586957 12.182357,11.5217391 C15.1785584,9.89130435 17.2528516,7.60869565 17.7467309,6.17391304 C18.3393861,4.41304348 19.1954437,2 21.8953174,2 C23.1794037,2 24.2330129,2.7173913 24.7927428,3.95652174 C25.9122027,6.5 24.7268923,10.0217391 22.7513749,12.7934783 C24.0683865,13.0869565 25.7146509,13.5108696 26.7024096,13.8043478 C28.5133005,14.3586957 29.6986109,15.6630435 29.9620132,17.2608696 C30.1924903,18.8913043 29.369358,20.5543478 27.6243177,21.826087 C26.3402314,25.25 24.134237,30.6630435 22.5208979,31.5434783 C21.8953174,31.8695652 20.8087828,32 19.5246965,32 Z M9.5154086,27.6956522 C12.0177306,28.7391304 19.7222483,29.8152174 21.170961,29.2608696 C21.9282427,28.576087 23.8708347,24.2065217 25.2207716,20.5217391 C25.3195475,20.2608696 25.4841739,20.0326087 25.7146509,19.8695652 C26.8011855,19.1521739 27.3609154,18.3043478 27.2621395,17.5869565 C27.1633637,17 26.636559,16.5108696 25.8463521,16.25 C24.2000876,15.7282609 20.1173518,14.8478261 20.0515012,14.8478261 C19.5905471,14.75 19.2283689,14.423913 19.0637425,13.9673913 C18.899116,13.5108696 19.0308172,13.0217391 19.3600701,12.6956522 C22.3233461,9.5326087 22.8501508,6.30434783 22.2904208,5 C22.1587197,4.60869565 21.9940932,4.60869565 21.8953174,4.60869565 C21.2368116,4.60869565 20.940484,5.06521739 20.2490529,7.02173913 C19.458846,9.30434783 16.726047,12.0434783 13.4664433,13.8043478 C11.8860294,14.6521739 10.3056155,15.7934783 9.5154086,16.3804348 L9.5154086,27.6956522 Z M4.3132129,28.6086957 L4.3132129,15.5652174 C4.3132129,14.3913043 3.35837951,13.4456522 2.17306909,13.4456522 C0.987758679,13.4456522 0,14.3913043 0,15.5652174 L0,28.576087 C0,29.75 0.954833389,30.6956522 2.1401438,30.6956522 C3.32545422,30.6956522 4.3132129,29.75 4.3132129,28.6086957 Z" id="Upvote-Icon"></path>
                </g>
            </g>
        </g>
    </g>
</svg>