<?xml version="1.0" encoding="UTF-8"?>
<svg width="200px" height="160px" viewBox="0 0 200 160" version="1.1" xmlns="http://www.w3.org/2000/svg" xmlns:xlink="http://www.w3.org/1999/xlink">
    <title>Logo</title>
    <g id="Symbols" stroke="none" stroke-width="1" fill="none" fill-rule="evenodd">
        <g id="Logo" fill="#72E4B9" fill-rule="nonzero">
            <path d="M68,79.9877235 C68,97.6635969 82.3291266,111.992723 100.005,111.992723 C117.680873,111.992723 132.01,97.6635969 132.01,79.9877235 C132.01,62.3118501 117.680873,47.9827235 100.005,47.9827235 C82.3291266,47.9827235 68,62.3118501 68,79.9877235 Z M45.29,67.9877235 C49.6744051,47.9954795 64.616431,31.9876961 84.259722,26.2384402 C103.903013,20.4891843 125.11811,25.9143951 139.59,40.3877235 C142.613041,43.4604076 147.051845,44.6756487 151.218453,43.5713231 C155.385062,42.4669975 158.639274,39.2127857 159.7436,35.0461769 C160.847925,30.879568 159.632684,26.4407644 156.56,23.4177235 C136.776608,3.64918729 108.107745,-4.3561795 80.944725,2.30324713 C53.7817047,8.96267375 32.0664997,29.3204591 23.67,55.9977235 L0,55.9977235 L0,79.9877235 L31.99,79.9877235 C41.98,79.9877235 44.44,71.8577235 45.29,67.9877235 Z M168,79.9877235 C158.01,79.9877235 155.55,88.1277235 154.71,91.9777235 C150.322822,111.968286 135.379673,127.9733 115.736827,133.720342 C96.093981,139.467385 74.8804908,134.040968 60.41,119.567723 C55.7238639,114.878826 48.1238975,114.876587 43.435,119.562723 C38.7461025,124.24886 38.7438639,131.848826 43.43,136.537723 C58.4127138,151.57397 78.7733725,160.014087 100,159.987785 C134.937651,159.978201 165.83343,137.311313 176.33,103.987723 L200,103.987723 L200,79.9877235 L168,79.9877235 Z"></path>
        </g>
    </g>
</svg>